<svg xmlns="http://www.w3.org/2000/svg" xmlns:xlink="http://www.w3.org/1999/xlink" width="2000" zoomAndPan="magnify" viewBox="0 0 1500 1499.999933" height="2000" preserveAspectRatio="xMidYMid meet" version="1.0"><defs><clipPath id="630b37d118"><path d="M 212 129 L 1303 129 L 1303 1220 L 212 1220 Z M 212 129 " clip-rule="nonzero"/></clipPath><clipPath id="2bc7ecc5d5"><path d="M 451.375 129.605469 L 1302.585938 980.820312 L 1063.96875 1219.4375 L 212.753906 368.226562 Z M 451.375 129.605469 " clip-rule="nonzero"/></clipPath><clipPath id="4d9c9d988b"><path d="M 0.640625 0.601562 L 1090.71875 0.601562 L 1090.71875 1090.441406 L 0.640625 1090.441406 Z M 0.640625 0.601562 " clip-rule="nonzero"/></clipPath><clipPath id="4f36fcb01d"><path d="M 239.375 0.605469 L 1090.585938 851.820312 L 851.96875 1090.4375 L 0.753906 239.226562 Z M 239.375 0.605469 " clip-rule="nonzero"/></clipPath><clipPath id="2a360ad485"><rect x="0" width="1091" y="0" height="1091"/></clipPath><clipPath id="fe3ac1d1d2"><path d="M 212.753906 129.605469 L 451.226562 129.605469 L 451.226562 368.105469 L 212.753906 368.105469 Z M 212.753906 129.605469 " clip-rule="nonzero"/></clipPath><clipPath id="56569e5098"><path d="M 0.753906 0.605469 L 239.226562 0.605469 L 239.226562 239.105469 L 0.753906 239.105469 Z M 0.753906 0.605469 " clip-rule="nonzero"/></clipPath><clipPath id="29139fbe7a"><rect x="0" width="240" y="0" height="240"/></clipPath><clipPath id="35d991fb5d"><path d="M 180.542969 99.191406 L 1319.792969 99.191406 L 1319.792969 1400.441406 L 180.542969 1400.441406 Z M 180.542969 99.191406 " clip-rule="nonzero"/></clipPath><clipPath id="57c98c030f"><path d="M 183.890625 95.792969 L 1316.761719 95.792969 L 1316.761719 129.605469 L 183.890625 129.605469 Z M 183.890625 95.792969 " clip-rule="nonzero"/></clipPath><clipPath id="0fd33ed8b3"><path d="M 0.890625 0.792969 L 1133.761719 0.792969 L 1133.761719 34.605469 L 0.890625 34.605469 Z M 0.890625 0.792969 " clip-rule="nonzero"/></clipPath><clipPath id="51341cc1df"><rect x="0" width="1134" y="0" height="35"/></clipPath><clipPath id="b752e0c4b1"><path d="M 150 64.285156 L 1350 64.285156 L 1350 1436 L 150 1436 Z M 150 64.285156 " clip-rule="nonzero"/></clipPath><clipPath id="ff088f653c"><path d="M 150 64.285156 L 1350 64.285156 L 1350 95.792969 L 150 95.792969 Z M 150 64.285156 " clip-rule="nonzero"/></clipPath><clipPath id="28e0822a3f"><path d="M 0 0.285156 L 1200 0.285156 L 1200 31.792969 L 0 31.792969 Z M 0 0.285156 " clip-rule="nonzero"/></clipPath><clipPath id="c6d2ef5fdc"><rect x="0" width="1200" y="0" height="32"/></clipPath></defs><rect x="-150" width="1800" fill="#ffffff" y="-149.999993" height="1799.99992" fill-opacity="1"/><rect x="-150" width="1800" fill="#ffffff" y="-149.999993" height="1799.99992" fill-opacity="1"/><g clip-path="url(#630b37d118)"><g clip-path="url(#2bc7ecc5d5)"><g transform="matrix(1, 0, 0, 1, 212, 129)"><g clip-path="url(#2a360ad485)"><g clip-path="url(#4d9c9d988b)"><g clip-path="url(#4f36fcb01d)"><path fill="#0a0a0c" d="M 239.375 0.605469 L 1090.386719 851.621094 L 851.765625 1090.238281 L 0.753906 239.226562 Z M 239.375 0.605469 " fill-opacity="1" fill-rule="nonzero"/></g></g></g></g></g></g><g clip-path="url(#fe3ac1d1d2)"><g transform="matrix(1, 0, 0, 1, 212, 129)"><g clip-path="url(#29139fbe7a)"><g clip-path="url(#56569e5098)"><path fill="#0a0a0c" d="M 239.226562 0.605469 L 239.226562 239.078125 L 0.753906 239.078125 L 0.753906 0.605469 Z M 239.226562 0.605469 " fill-opacity="1" fill-rule="nonzero"/></g></g></g></g><g clip-path="url(#35d991fb5d)"><path fill="#ffffff" d="M 1303.183594 99.191406 L 196.8125 99.191406 C 187.828125 99.191406 180.542969 106.46875 180.542969 115.460938 L 180.542969 761.820312 C 180.542969 963.179688 290.382812 1148.980469 467.191406 1246.746094 L 742.125 1398.769531 C 744.570312 1400.121094 747.289062 1400.804688 749.996094 1400.804688 C 752.707031 1400.804688 755.421875 1400.121094 757.871094 1398.769531 L 1032.800781 1246.746094 C 1209.613281 1148.980469 1319.453125 963.179688 1319.453125 761.820312 L 1319.453125 115.460938 C 1319.453125 106.46875 1312.167969 99.191406 1303.183594 99.191406 Z M 1286.910156 761.820312 C 1286.910156 951.339844 1183.507812 1126.246094 1017.054688 1218.273438 L 749.996094 1365.941406 L 482.9375 1218.273438 C 316.488281 1126.246094 213.082031 951.339844 213.082031 761.820312 L 213.082031 131.730469 L 1286.910156 131.730469 Z M 1286.910156 761.820312 " fill-opacity="1" fill-rule="nonzero"/></g><g clip-path="url(#57c98c030f)"><g transform="matrix(1, 0, 0, 1, 183, 95)"><g clip-path="url(#51341cc1df)"><g clip-path="url(#0fd33ed8b3)"><path fill="#ffffff" d="M 0.890625 0.792969 L 1133.769531 0.792969 L 1133.769531 34.605469 L 0.890625 34.605469 Z M 0.890625 0.792969 " fill-opacity="1" fill-rule="nonzero"/></g></g></g></g><g clip-path="url(#b752e0c4b1)"><path fill="#0a0a0c" d="M 1332.855469 64.285156 L 167.144531 64.285156 C 157.679688 64.285156 150.003906 71.953125 150.003906 81.429688 L 150.003906 762.453125 C 150.003906 974.609375 265.734375 1170.378906 452.027344 1273.386719 L 741.703125 1433.566406 C 744.28125 1434.988281 747.144531 1435.707031 750 1435.707031 C 752.855469 1435.707031 755.71875 1434.988281 758.296875 1433.566406 L 1047.972656 1273.386719 C 1234.265625 1170.378906 1349.996094 974.609375 1349.996094 762.453125 L 1349.996094 81.429688 C 1349.996094 71.953125 1342.320312 64.285156 1332.855469 64.285156 Z M 1315.710938 762.453125 C 1315.710938 962.136719 1206.761719 1146.421875 1031.382812 1243.386719 L 750 1398.976562 L 468.617188 1243.386719 C 293.238281 1146.421875 184.289062 962.136719 184.289062 762.453125 L 184.289062 98.570312 L 1315.710938 98.570312 Z M 1315.710938 762.453125 " fill-opacity="1" fill-rule="nonzero"/><path fill="#0a0a0c" d="M 1332.855469 64.285156 L 167.144531 64.285156 C 157.679688 64.285156 150.003906 71.953125 150.003906 81.429688 L 150.003906 762.453125 C 150.003906 974.609375 265.734375 1170.378906 452.027344 1273.386719 L 741.703125 1433.566406 C 744.28125 1434.988281 747.144531 1435.707031 750 1435.707031 C 752.855469 1435.707031 755.71875 1434.988281 758.296875 1433.566406 L 1047.972656 1273.386719 C 1234.265625 1170.378906 1349.996094 974.609375 1349.996094 762.453125 L 1349.996094 81.429688 C 1349.996094 71.953125 1342.320312 64.285156 1332.855469 64.285156 Z M 1315.710938 762.453125 C 1315.710938 962.136719 1206.761719 1146.421875 1031.382812 1243.386719 L 750 1398.976562 L 468.617188 1243.386719 C 293.238281 1146.421875 184.289062 962.136719 184.289062 762.453125 L 184.289062 98.570312 L 1315.710938 98.570312 Z M 1315.710938 762.453125 " fill-opacity="1" fill-rule="nonzero"/></g><g clip-path="url(#ff088f653c)"><g transform="matrix(1, 0, 0, 1, 150, 64)"><g clip-path="url(#c6d2ef5fdc)"><g clip-path="url(#28e0822a3f)"><path fill="#0a0a0c" d="M 0 0.285156 L 1199.980469 0.285156 L 1199.980469 31.792969 L 0 31.792969 Z M 0 0.285156 " fill-opacity="1" fill-rule="nonzero"/></g></g></g></g></svg>