<svg xmlns="http://www.w3.org/2000/svg" viewBox="0 0 1500 1500">
  <title>Chateau Follent Lockup</title>
  <desc>Final lockup with outlined wordmark and crest.</desc>

  <defs>
    <clipPath id="crest-clip-field">
      <path d="
        M 290 176
        L 1710 176
        L 1710 998
        C 1710 1248 1578 1476 1362 1612
        L 1008 1808
        C 1005 1810 1002 1811 1000 1811
        C 998 1811 995 1810 992 1808
        L 638 1612
        C 422 1476 290 1248 290 998
        Z" />
    </clipPath>
  </defs>

  <!-- WORDMARK -->
  <g id="wordmark" fill="#0A0A0C" transform="translate(223 146)">
    <!-- CHATEAU -->
    <g transform="translate(0.79738, 157.825784)">
      <path d="M 115.453125 -125.734375 L 123.453125 -125.734375 L 120.1875 -84.421875 L 113.65625 -84.421875 C 111.363281 -94.441406 106.925781 -102.332031 100.34375 -108.09375 C 93.757812 -113.863281 85.785156 -116.75 76.421875 -116.75 C 69.992188 -116.75 64.273438 -115.46875 59.265625 -112.90625 C 54.265625 -110.351562 50.050781 -106.707031 46.625 -101.96875 C 43.195312 -97.238281 40.582031 -91.472656 38.78125 -84.671875 C 36.988281 -77.867188 36.09375 -70.21875 36.09375 -61.71875 C 36.09375 -44.851562 39.546875 -31.875 46.453125 -22.78125 C 53.367188 -13.6875 63.578125 -9.140625 77.078125 -9.140625 C 87.960938 -9.140625 96.96875 -12.078125 104.09375 -17.953125 C 111.226562 -23.835938 116.320312 -32.601562 119.375 -44.25 L 126.5625 -44.25 L 126.5625 0 L 118.875 0 L 116.59375 -12.90625 C 104.613281 -3.207031 90.082031 1.640625 73 1.640625 C 63.09375 1.640625 54.109375 0.171875 46.046875 -2.765625 C 37.992188 -5.710938 31.132812 -9.878906 25.46875 -15.265625 C 19.8125 -20.648438 15.429688 -27.207031 12.328125 -34.9375 C 9.222656 -42.675781 7.671875 -51.28125 7.671875 -60.75 C 7.671875 -70.65625 9.300781 -79.6875 12.5625 -87.84375 C 15.832031 -96.007812 20.429688 -103.03125 26.359375 -108.90625 C 32.296875 -114.789062 39.375 -119.335938 47.59375 -122.546875 C 55.820312 -125.765625 64.941406 -127.375 74.953125 -127.375 C 81.597656 -127.375 87.800781 -126.445312 93.5625 -124.59375 C 99.332031 -122.738281 105.59375 -119.742188 112.34375 -115.609375 Z M 115.453125 -125.734375 "/>
    </g>
    <g transform="translate(151.518295, 157.825784)">
      <path d="M 131.453125 -26.296875 C 131.453125 -22.148438 131.640625 -18.796875 132.015625 -16.234375 C 132.398438 -13.679688 133.21875 -11.722656 134.46875 -10.359375 C 135.726562 -9.003906 137.472656 -8.050781 139.703125 -7.5 C 141.929688 -6.957031 144.894531 -6.632812 148.59375 -6.53125 L 148.59375 0 L 88.671875 0 L 88.671875 -6.53125 C 92.703125 -6.632812 95.941406 -6.957031 98.390625 -7.5 C 100.835938 -8.050781 102.738281 -8.976562 104.09375 -10.28125 C 105.457031 -11.59375 106.359375 -13.445312 106.796875 -15.84375 C 107.234375 -18.238281 107.453125 -21.335938 107.453125 -25.140625 L 107.453125 -59.28125 L 46.859375 -59.28125 L 46.859375 -26.296875 C 46.859375 -22.148438 47.078125 -18.796875 47.515625 -16.234375 C 47.953125 -13.679688 48.820312 -11.722656 50.125 -10.359375 C 51.4375 -9.003906 53.316406 -8.050781 55.765625 -7.5 C 58.210938 -6.957031 61.453125 -6.632812 65.484375 -6.53125 L 65.484375 0 L 5.71875 0 L 5.71875 -6.53125 C 9.414062 -6.632812 12.378906 -6.957031 14.609375 -7.5 C 16.847656 -8.050781 18.566406 -8.976562 19.765625 -10.28125 C 20.960938 -11.59375 21.773438 -13.445312 22.203125 -15.84375 C 22.640625 -18.238281 22.859375 -21.335938 22.859375 -25.140625 L 22.859375 -100.59375 C 22.859375 -104.40625 22.664062 -107.476562 22.28125 -109.8125 C 21.90625 -112.15625 21.171875 -114.003906 20.078125 -115.359375 C 18.992188 -116.722656 17.441406 -117.648438 15.421875 -118.140625 C 13.410156 -118.628906 10.773438 -118.984375 7.515625 -119.203125 L 7.515625 -125.734375 L 63.84375 -125.734375 L 63.84375 -119.203125 C 60.144531 -119.097656 57.179688 -118.769531 54.953125 -118.21875 C 52.722656 -117.675781 51.007812 -116.695312 49.8125 -115.28125 C 48.613281 -113.875 47.820312 -111.914062 47.4375 -109.40625 C 47.050781 -106.90625 46.859375 -103.585938 46.859375 -99.453125 L 46.859375 -69.40625 L 107.453125 -69.40625 L 107.453125 -100.59375 C 107.453125 -104.40625 107.234375 -107.476562 106.796875 -109.8125 C 106.359375 -112.15625 105.539062 -114.003906 104.34375 -115.359375 C 103.144531 -116.722656 101.429688 -117.648438 99.203125 -118.140625 C 96.972656 -118.628906 94.003906 -118.984375 90.296875 -119.203125 L 90.296875 -125.734375 L 146.796875 -125.734375 L 146.796875 -119.203125 C 143.535156 -119.097656 140.894531 -118.769531 138.875 -118.21875 C 136.863281 -117.675781 135.3125 -116.695312 134.21875 -115.28125 C 133.132812 -113.875 132.398438 -111.914062 132.015625 -109.40625 C 131.640625 -106.90625 131.453125 -103.585938 131.453125 -99.453125 Z M 131.453125 -26.296875 "/>
    </g>
    <g transform="translate(322.160925, 157.825784)">
      <path d="M 81.8125 -38.046875 L 35.59375 -38.046875 C 30.476562 -26.503906 27.921875 -18.503906 27.921875 -14.046875 C 27.921875 -10.773438 29.144531 -8.703125 31.59375 -7.828125 C 34.039062 -6.960938 37.71875 -6.53125 42.625 -6.53125 L 42.625 0 L -2.125 0 L -2.125 -6.53125 C 0.488281 -6.851562 2.75 -7.285156 4.65625 -7.828125 C 6.5625 -8.378906 8.25 -9.144531 9.71875 -10.125 C 11.1875 -11.101562 12.460938 -12.378906 13.546875 -13.953125 C 14.640625 -15.535156 15.675781 -17.472656 16.65625 -19.765625 L 59.609375 -127.375 L 71.6875 -127.375 L 110.71875 -32 C 113 -26.445312 114.925781 -22.09375 116.5 -18.9375 C 118.082031 -15.78125 119.769531 -13.359375 121.5625 -11.671875 C 123.363281 -9.984375 125.4375 -8.8125 127.78125 -8.15625 C 130.125 -7.507812 133.144531 -7.019531 136.84375 -6.6875 L 136.84375 0 L 75.109375 0 L 75.109375 -6.6875 C 80.335938 -6.90625 84.09375 -7.453125 86.375 -8.328125 C 88.664062 -9.203125 89.8125 -10.941406 89.8125 -13.546875 C 89.8125 -15.078125 89.429688 -17.039062 88.671875 -19.4375 C 87.910156 -21.832031 86.875 -24.769531 85.5625 -28.25 Z M 39.359375 -47.84375 L 78.21875 -47.84375 L 59.4375 -97.328125 L 58.78125 -97.328125 Z M 39.359375 -47.84375 "/>
    </g>
    <g transform="translate(470.595741, 157.825784)">
      <path d="M 133.09375 -89.8125 L 126.0625 -89.8125 C 125.738281 -95.144531 124.945312 -99.578125 123.6875 -103.109375 C 122.4375 -106.648438 120.671875 -109.484375 118.390625 -111.609375 C 116.109375 -113.734375 113.332031 -115.203125 110.0625 -116.015625 C 106.789062 -116.835938 102.976562 -117.25 98.625 -117.25 C 94.382812 -117.25 90.984375 -117.164062 88.421875 -117 C 85.867188 -116.832031 83.910156 -116.554688 82.546875 -116.171875 C 81.179688 -115.796875 80.28125 -115.28125 79.84375 -114.625 C 79.414062 -113.976562 79.203125 -113.164062 79.203125 -112.1875 L 79.203125 -26.625 C 79.203125 -23.132812 79.445312 -20.132812 79.9375 -17.625 C 80.425781 -15.125 81.429688 -13.082031 82.953125 -11.5 C 84.472656 -9.925781 86.703125 -8.726562 89.640625 -7.90625 C 92.585938 -7.09375 96.457031 -6.632812 101.25 -6.53125 L 101.25 0 L 32.828125 0 L 32.828125 -6.53125 C 37.722656 -6.632812 41.640625 -7.09375 44.578125 -7.90625 C 47.515625 -8.726562 49.769531 -9.925781 51.34375 -11.5 C 52.925781 -13.082031 53.960938 -15.125 54.453125 -17.625 C 54.941406 -20.132812 55.1875 -23.132812 55.1875 -26.625 L 55.1875 -112.1875 C 55.1875 -113.164062 54.992188 -113.976562 54.609375 -114.625 C 54.234375 -115.28125 53.445312 -115.796875 52.25 -116.171875 C 51.050781 -116.554688 49.335938 -116.832031 47.109375 -117 C 44.878906 -117.164062 41.96875 -117.25 38.375 -117.25 C 34.457031 -117.25 30.703125 -117.054688 27.109375 -116.671875 C 23.515625 -116.296875 20.351562 -115.207031 17.625 -113.40625 C 14.90625 -111.613281 12.703125 -108.894531 11.015625 -105.25 C 9.328125 -101.601562 8.429688 -96.457031 8.328125 -89.8125 L 1.953125 -89.8125 L 3.59375 -125.734375 L 131.453125 -125.734375 Z M 133.09375 -89.8125 "/>
    </g>
    <g transform="translate(621.969833, 157.825784)">
      <path d="M 46.859375 -69.5625 C 53.828125 -69.5625 59.429688 -69.78125 63.671875 -70.21875 C 67.921875 -70.65625 71.21875 -71.550781 73.5625 -72.90625 C 75.90625 -74.269531 77.566406 -76.257812 78.546875 -78.875 C 79.523438 -81.488281 80.285156 -85.023438 80.828125 -89.484375 L 86.875 -89.484375 L 86.875 -41.640625 L 80.828125 -41.640625 C 80.179688 -45.992188 79.3125 -49.476562 78.21875 -52.09375 C 77.132812 -54.707031 75.394531 -56.691406 73 -58.046875 C 70.601562 -59.410156 67.363281 -60.28125 63.28125 -60.65625 C 59.195312 -61.039062 53.722656 -61.234375 46.859375 -61.234375 L 46.859375 -27.59375 C 46.859375 -24.113281 47.320312 -21.175781 48.25 -18.78125 C 49.175781 -16.382812 50.726562 -14.453125 52.90625 -12.984375 C 55.082031 -11.515625 57.96875 -10.476562 61.5625 -9.875 C 65.15625 -9.28125 69.566406 -8.984375 74.796875 -8.984375 C 80.992188 -8.984375 86.242188 -9.414062 90.546875 -10.28125 C 94.847656 -11.15625 98.410156 -12.679688 101.234375 -14.859375 C 104.066406 -17.035156 106.351562 -19.945312 108.09375 -23.59375 C 109.84375 -27.238281 111.316406 -31.835938 112.515625 -37.390625 L 119.046875 -37.390625 L 116.4375 0 L 5.71875 0 L 5.71875 -6.53125 C 9.3125 -6.632812 12.25 -6.957031 14.53125 -7.5 C 16.820312 -8.050781 18.566406 -8.976562 19.765625 -10.28125 C 20.960938 -11.59375 21.773438 -13.445312 22.203125 -15.84375 C 22.640625 -18.238281 22.859375 -21.335938 22.859375 -25.140625 L 22.859375 -100.59375 C 22.859375 -104.40625 22.664062 -107.476562 22.28125 -109.8125 C 21.90625 -112.15625 21.171875 -114.003906 20.078125 -115.359375 C 18.992188 -116.722656 17.441406 -117.648438 15.421875 -118.140625 C 13.410156 -118.628906 10.773438 -118.984375 7.515625 -119.203125 L 7.515625 -125.734375 L 110.71875 -125.734375 L 111.859375 -93.734375 L 104.84375 -93.734375 C 104.1875 -98.304688 103.148438 -102.085938 101.734375 -105.078125 C 100.316406 -108.078125 98.351562 -110.472656 95.84375 -112.265625 C 93.34375 -114.066406 90.101562 -115.316406 86.125 -116.015625 C 82.15625 -116.722656 77.289062 -117.078125 71.53125 -117.078125 L 53.078125 -117.078125 C 50.242188 -117.078125 48.5 -116.722656 47.84375 -116.015625 C 47.1875 -115.316406 46.859375 -113.660156 46.859375 -111.046875 Z M 46.859375 -69.5625 "/>
    </g>
    <g transform="translate(763.056492, 157.825784)">
      <path d="M 81.8125 -38.046875 L 35.59375 -38.046875 C 30.476562 -26.503906 27.921875 -18.503906 27.921875 -14.046875 C 27.921875 -10.773438 29.144531 -8.703125 31.59375 -7.828125 C 34.039062 -6.960938 37.71875 -6.53125 42.625 -6.53125 L 42.625 0 L -2.125 0 L -2.125 -6.53125 C 0.488281 -6.851562 2.75 -7.285156 4.65625 -7.828125 C 6.5625 -8.378906 8.25 -9.144531 9.71875 -10.125 C 11.1875 -11.101562 12.460938 -12.378906 13.546875 -13.953125 C 14.640625 -15.535156 15.675781 -17.472656 16.65625 -19.765625 L 59.609375 -127.375 L 71.6875 -127.375 L 110.71875 -32 C 113 -26.445312 114.925781 -22.09375 116.5 -18.9375 C 118.082031 -15.78125 119.769531 -13.359375 121.5625 -11.671875 C 123.363281 -9.984375 125.4375 -8.8125 127.78125 -8.15625 C 130.125 -7.507812 133.144531 -7.019531 136.84375 -6.6875 L 136.84375 0 L 75.109375 0 L 75.109375 -6.6875 C 80.335938 -6.90625 84.09375 -7.453125 86.375 -8.328125 C 88.664062 -9.203125 89.8125 -10.941406 89.8125 -13.546875 C 89.8125 -15.078125 89.429688 -17.039062 88.671875 -19.4375 C 87.910156 -21.832031 86.875 -24.769531 85.5625 -28.25 Z M 39.359375 -47.84375 L 78.21875 -47.84375 L 59.4375 -97.328125 L 58.78125 -97.328125 Z M 39.359375 -47.84375 "/>
    </g>
    <g transform="translate(911.491308, 157.825784)">
      <path d="M 123.609375 -50.625 C 123.609375 -41.363281 122.601562 -33.441406 120.59375 -26.859375 C 118.582031 -20.273438 115.453125 -14.859375 111.203125 -10.609375 C 106.960938 -6.367188 101.492188 -3.265625 94.796875 -1.296875 C 88.097656 0.660156 80.066406 1.640625 70.703125 1.640625 C 53.179688 1.640625 40.363281 -2.03125 32.25 -9.375 C 24.132812 -16.726562 20.078125 -28.460938 20.078125 -44.578125 L 20.078125 -89.328125 C 20.078125 -93.566406 20.023438 -97.128906 19.921875 -100.015625 C 19.816406 -102.898438 19.65625 -105.320312 19.4375 -107.28125 C 19.21875 -109.238281 18.914062 -110.84375 18.53125 -112.09375 C 18.15625 -113.351562 17.691406 -114.414062 17.140625 -115.28125 C 16.160156 -116.8125 14.742188 -117.847656 12.890625 -118.390625 C 11.046875 -118.929688 8.21875 -119.203125 4.40625 -119.203125 L 4.40625 -125.734375 L 63.03125 -125.734375 L 63.03125 -119.203125 C 58.457031 -119.203125 55.082031 -118.957031 52.90625 -118.46875 C 50.726562 -117.976562 49.039062 -117.023438 47.84375 -115.609375 C 47.082031 -114.742188 46.457031 -113.679688 45.96875 -112.421875 C 45.476562 -111.171875 45.097656 -109.539062 44.828125 -107.53125 C 44.554688 -105.519531 44.363281 -103.039062 44.25 -100.09375 C 44.144531 -97.15625 44.09375 -93.566406 44.09375 -89.328125 L 44.09375 -46.546875 C 44.09375 -34.128906 46.734375 -24.953125 52.015625 -19.015625 C 57.296875 -13.085938 65.429688 -10.125 76.421875 -10.125 C 98.847656 -10.125 110.0625 -22.585938 110.0625 -47.515625 L 110.0625 -85.234375 C 110.0625 -89.804688 109.976562 -93.722656 109.8125 -96.984375 C 109.65625 -100.253906 109.382812 -103.03125 109 -105.3125 C 108.613281 -107.601562 108.125 -109.507812 107.53125 -111.03125 C 106.9375 -112.5625 106.203125 -113.816406 105.328125 -114.796875 C 103.804688 -116.316406 101.847656 -117.429688 99.453125 -118.140625 C 97.054688 -118.847656 93.734375 -119.203125 89.484375 -119.203125 L 89.484375 -125.734375 L 142.390625 -125.734375 L 142.390625 -119.203125 C 138.367188 -119.203125 135.269531 -118.898438 133.09375 -118.296875 C 130.914062 -117.703125 129.226562 -116.644531 128.03125 -115.125 C 127.15625 -114.144531 126.441406 -112.863281 125.890625 -111.28125 C 125.347656 -109.707031 124.914062 -107.75 124.59375 -105.40625 C 124.269531 -103.0625 124.023438 -100.253906 123.859375 -96.984375 C 123.691406 -93.722656 123.609375 -89.804688 123.609375 -85.234375 Z M 123.609375 -50.625 "/>
    </g>

    <!-- FOLLENT -->
    <g transform="translate(15.823497, 337.160287)">
      <path d="M 46.859375 -26.296875 C 46.859375 -22.148438 47.128906 -18.796875 47.671875 -16.234375 C 48.222656 -13.679688 49.34375 -11.722656 51.03125 -10.359375 C 52.71875 -9.003906 55.113281 -8.050781 58.21875 -7.5 C 61.320312 -6.957031 65.484375 -6.632812 70.703125 -6.53125 L 70.703125 0 L 5.71875 0 L 5.71875 -6.53125 C 9.3125 -6.632812 12.25 -6.957031 14.53125 -7.5 C 16.820312 -8.050781 18.566406 -8.976562 19.765625 -10.28125 C 20.960938 -11.59375 21.773438 -13.445312 22.203125 -15.84375 C 22.640625 -18.238281 22.859375 -21.335938 22.859375 -25.140625 L 22.859375 -100.59375 C 22.859375 -104.40625 22.664062 -107.476562 22.28125 -109.8125 C 21.90625 -112.15625 21.171875 -114.003906 20.078125 -115.359375 C 18.992188 -116.722656 17.441406 -117.648438 15.421875 -118.140625 C 13.410156 -118.628906 10.773438 -118.984375 7.515625 -119.203125 L 7.515625 -125.734375 L 107.453125 -125.734375 L 109.40625 -91.28125 L 102.546875 -91.28125 C 101.898438 -95.96875 100.945312 -99.914062 99.6875 -103.125 C 98.4375 -106.332031 96.664062 -108.941406 94.375 -110.953125 C 92.09375 -112.972656 89.15625 -114.414062 85.5625 -115.28125 C 81.96875 -116.15625 77.5625 -116.59375 72.34375 -116.59375 L 49.8125 -116.59375 C 47.84375 -116.59375 46.859375 -115.664062 46.859375 -113.8125 L 46.859375 -66.625 C 53.503906 -66.625 58.921875 -66.894531 63.109375 -67.4375 C 67.304688 -67.988281 70.65625 -69.050781 73.15625 -70.625 C 75.65625 -72.207031 77.445312 -74.359375 78.53125 -77.078125 C 79.625 -79.796875 80.390625 -83.390625 80.828125 -87.859375 L 86.875 -87.859375 L 86.875 -36.734375 L 80.828125 -36.734375 C 80.179688 -41.304688 79.257812 -44.976562 78.0625 -47.75 C 76.863281 -50.53125 75.035156 -52.65625 72.578125 -54.125 C 70.128906 -55.601562 66.835938 -56.613281 62.703125 -57.15625 C 58.566406 -57.695312 53.285156 -57.96875 46.859375 -57.96875 Z M 46.859375 -26.296875 "/>
    </g>
    <g transform="translate(144.663184, 337.160287)">
      <path d="M 77.078125 -127.375 C 86.867188 -127.375 96.007812 -125.6875 104.5 -122.3125 C 113 -118.9375 120.378906 -114.304688 126.640625 -108.421875 C 132.898438 -102.546875 137.820312 -95.632812 141.40625 -87.6875 C 145 -79.738281 146.796875 -71.140625 146.796875 -61.890625 C 146.796875 -53.066406 144.972656 -44.789062 141.328125 -37.0625 C 137.679688 -29.332031 132.726562 -22.609375 126.46875 -16.890625 C 120.207031 -11.179688 112.832031 -6.664062 104.34375 -3.34375 C 95.851562 -0.0195312 86.765625 1.640625 77.078125 1.640625 C 67.390625 1.640625 58.296875 -0.0195312 49.796875 -3.34375 C 41.304688 -6.664062 33.90625 -11.179688 27.59375 -16.890625 C 21.28125 -22.609375 16.328125 -29.332031 12.734375 -37.0625 C 9.140625 -44.789062 7.34375 -53.066406 7.34375 -61.890625 C 7.34375 -71.140625 9.140625 -79.738281 12.734375 -87.6875 C 16.328125 -95.632812 21.253906 -102.546875 27.515625 -108.421875 C 33.773438 -114.304688 41.148438 -118.9375 49.640625 -122.3125 C 58.128906 -125.6875 67.273438 -127.375 77.078125 -127.375 Z M 77.078125 -8.984375 C 83.390625 -8.984375 89.101562 -10.207031 94.21875 -12.65625 C 99.332031 -15.101562 103.6875 -18.585938 107.28125 -23.109375 C 110.875 -27.628906 113.625 -33.125 115.53125 -39.59375 C 117.4375 -46.070312 118.390625 -53.34375 118.390625 -61.40625 C 118.390625 -69.894531 117.4375 -77.539062 115.53125 -84.34375 C 113.625 -91.144531 110.875 -96.96875 107.28125 -101.8125 C 103.6875 -106.65625 99.332031 -110.351562 94.21875 -112.90625 C 89.101562 -115.46875 83.390625 -116.75 77.078125 -116.75 C 70.648438 -116.75 64.90625 -115.46875 59.84375 -112.90625 C 54.78125 -110.351562 50.453125 -106.65625 46.859375 -101.8125 C 43.273438 -96.96875 40.53125 -91.144531 38.625 -84.34375 C 36.71875 -77.539062 35.765625 -69.894531 35.765625 -61.40625 C 35.765625 -53.34375 36.71875 -46.070312 38.625 -39.59375 C 40.53125 -33.125 43.273438 -27.628906 46.859375 -23.109375 C 50.453125 -18.585938 54.78125 -15.101562 59.84375 -12.65625 C 64.90625 -10.207031 70.648438 -8.984375 77.078125 -8.984375 Z M 77.078125 -8.984375 "/>
    </g>
    <g transform="translate(314.979244, 337.160287)">
      <path d="M 118.234375 0 L 5.71875 0 L 5.71875 -6.53125 C 9.3125 -6.632812 12.25 -6.957031 14.53125 -7.5 C 16.820312 -8.050781 18.566406 -8.976562 19.765625 -10.28125 C 20.960938 -11.59375 21.773438 -13.445312 22.203125 -15.84375 C 22.640625 -18.238281 22.859375 -21.335938 22.859375 -25.140625 L 22.859375 -100.59375 C 22.859375 -104.40625 22.664062 -107.476562 22.28125 -109.8125 C 21.90625 -112.15625 21.171875 -114.003906 20.078125 -115.359375 C 18.992188 -116.722656 17.441406 -117.648438 15.421875 -118.140625 C 13.410156 -118.628906 10.773438 -118.984375 7.515625 -119.203125 L 7.515625 -125.734375 L 63.84375 -125.734375 L 63.84375 -119.203125 C 60.144531 -119.097656 57.179688 -118.769531 54.953125 -118.21875 C 52.722656 -117.675781 51.007812 -116.695312 49.8125 -115.28125 C 48.613281 -113.875 47.820312 -111.914062 47.4375 -109.40625 C 47.050781 -106.90625 46.859375 -103.585938 46.859375 -99.453125 L 46.859375 -31.03125 C 46.859375 -26.457031 47.320312 -22.726562 48.25 -19.84375 C 49.175781 -16.957031 50.78125 -14.722656 53.0625 -13.140625 C 55.351562 -11.566406 58.40625 -10.476562 62.21875 -9.875 C 66.03125 -9.28125 70.765625 -8.984375 76.421875 -8.984375 C 82.734375 -8.984375 88.007812 -9.363281 92.25 -10.125 C 96.5 -10.882812 100.066406 -12.328125 102.953125 -14.453125 C 105.835938 -16.578125 108.148438 -19.429688 109.890625 -23.015625 C 111.640625 -26.609375 113.113281 -31.289062 114.3125 -37.0625 L 120.84375 -37.0625 Z M 118.234375 0 "/>
    </g>
    <g transform="translate(454.596261, 337.160287)">
      <path d="M 118.234375 0 L 5.71875 0 L 5.71875 -6.53125 C 9.3125 -6.632812 12.25 -6.957031 14.53125 -7.5 C 16.820312 -8.050781 18.566406 -8.976562 19.765625 -10.28125 C 20.960938 -11.59375 21.773438 -13.445312 22.203125 -15.84375 C 22.640625 -18.238281 22.859375 -21.335938 22.859375 -25.140625 L 22.859375 -100.59375 C 22.859375 -104.40625 22.664062 -107.476562 22.28125 -109.8125 C 21.90625 -112.15625 21.171875 -114.003906 20.078125 -115.359375 C 18.992188 -116.722656 17.441406 -117.648438 15.421875 -118.140625 C 13.410156 -118.628906 10.773438 -118.984375 7.515625 -119.203125 L 7.515625 -125.734375 L 63.84375 -125.734375 L 63.84375 -119.203125 C 60.144531 -119.097656 57.179688 -118.769531 54.953125 -118.21875 C 52.722656 -117.675781 51.007812 -116.695312 49.8125 -115.28125 C 48.613281 -113.875 47.820312 -111.914062 47.4375 -109.40625 C 47.050781 -106.90625 46.859375 -103.585938 46.859375 -99.453125 L 46.859375 -31.03125 C 46.859375 -26.457031 47.320312 -22.726562 48.25 -19.84375 C 49.175781 -16.957031 50.78125 -14.722656 53.0625 -13.140625 C 55.351562 -11.566406 58.40625 -10.476562 62.21875 -9.875 C 66.03125 -9.28125 70.765625 -8.984375 76.421875 -8.984375 C 82.734375 -8.984375 88.007812 -9.363281 92.25 -10.125 C 96.5 -10.882812 100.066406 -12.328125 102.953125 -14.453125 C 105.835938 -16.578125 108.148438 -19.429688 109.890625 -23.015625 C 111.640625 -26.609375 113.113281 -31.289062 114.3125 -37.0625 L 120.84375 -37.0625 Z M 118.234375 0 "/>
    </g>
    <g transform="translate(594.213231, 337.160287)">
      <path d="M 46.859375 -69.5625 C 53.828125 -69.5625 59.429688 -69.78125 63.671875 -70.21875 C 67.921875 -70.65625 71.21875 -71.550781 73.5625 -72.90625 C 75.90625 -74.269531 77.566406 -76.257812 78.546875 -78.875 C 79.523438 -81.488281 80.285156 -85.023438 80.828125 -89.484375 L 86.875 -89.484375 L 86.875 -41.640625 L 80.828125 -41.640625 C 80.179688 -45.992188 79.3125 -49.476562 78.21875 -52.09375 C 77.132812 -54.707031 75.394531 -56.691406 73 -58.046875 C 70.601562 -59.410156 67.363281 -60.28125 63.28125 -60.65625 C 59.195312 -61.039062 53.722656 -61.234375 46.859375 -61.234375 L 46.859375 -27.59375 C 46.859375 -24.113281 47.320312 -21.175781 48.25 -18.78125 C 49.175781 -16.382812 50.726562 -14.453125 52.90625 -12.984375 C 55.082031 -11.515625 57.96875 -10.476562 61.5625 -9.875 C 65.15625 -9.28125 69.566406 -8.984375 74.796875 -8.984375 C 80.992188 -8.984375 86.242188 -9.414062 90.546875 -10.28125 C 94.847656 -11.15625 98.410156 -12.679688 101.234375 -14.859375 C 104.066406 -17.035156 106.351562 -19.945312 108.09375 -23.59375 C 109.84375 -27.238281 111.316406 -31.835938 112.515625 -37.390625 L 119.046875 -37.390625 L 116.4375 0 L 5.71875 0 L 5.71875 -6.53125 C 9.3125 -6.632812 12.25 -6.957031 14.53125 -7.5 C 16.820312 -8.050781 18.566406 -8.976562 19.765625 -10.28125 C 20.960938 -11.59375 21.773438 -13.445312 22.203125 -15.84375 C 22.640625 -18.238281 22.859375 -21.335938 22.859375 -25.140625 L 22.859375 -100.59375 C 22.859375 -104.40625 22.664062 -107.476562 22.28125 -109.8125 C 21.90625 -112.15625 21.171875 -114.003906 20.078125 -115.359375 C 18.992188 -116.722656 17.441406 -117.648438 15.421875 -118.140625 C 13.410156 -118.628906 10.773438 -118.984375 7.515625 -119.203125 L 7.515625 -125.734375 L 110.71875 -125.734375 L 111.859375 -93.734375 L 104.84375 -93.734375 C 104.1875 -98.304688 103.148438 -102.085938 101.734375 -105.078125 C 100.316406 -108.078125 98.351562 -110.472656 95.84375 -112.265625 C 93.34375 -114.066406 90.101562 -115.316406 86.125 -116.015625 C 82.15625 -116.722656 77.289062 -117.078125 71.53125 -117.078125 L 53.078125 -117.078125 C 50.242188 -117.078125 48.5 -116.722656 47.84375 -116.015625 C 47.1875 -115.316406 46.859375 -113.660156 46.859375 -111.046875 Z M 46.859375 -69.5625 "/>
    </g>
    <g transform="translate(735.299889, 337.160287)">
      <path d="M 109.40625 1.640625 L 37.0625 -101.40625 L 36.421875 -101.40625 L 36.421875 -31.1875 C 36.421875 -25.75 36.609375 -21.445312 36.984375 -18.28125 C 37.367188 -15.125 38.1875 -12.675781 39.4375 -10.9375 C 40.6875 -9.195312 42.425781 -8.050781 44.65625 -7.5 C 46.894531 -6.957031 49.804688 -6.632812 53.390625 -6.53125 L 53.390625 0 L 4.90625 0 L 4.90625 -6.53125 C 8.925781 -6.632812 12.160156 -6.984375 14.609375 -7.578125 C 17.066406 -8.179688 18.972656 -9.300781 20.328125 -10.9375 C 21.691406 -12.570312 22.585938 -14.882812 23.015625 -17.875 C 23.453125 -20.875 23.671875 -24.929688 23.671875 -30.046875 L 23.671875 -95.6875 C 23.671875 -100.257812 23.453125 -104.039062 23.015625 -107.03125 C 22.585938 -110.03125 21.773438 -112.398438 20.578125 -114.140625 C 19.378906 -115.878906 17.660156 -117.101562 15.421875 -117.8125 C 13.191406 -118.519531 10.226562 -118.984375 6.53125 -119.203125 L 6.53125 -125.734375 L 52.09375 -125.734375 L 117.90625 -31.359375 L 118.546875 -31.359375 L 118.546875 -94.546875 C 118.546875 -99.878906 118.351562 -104.148438 117.96875 -107.359375 C 117.59375 -110.578125 116.78125 -113.054688 115.53125 -114.796875 C 114.28125 -116.535156 112.535156 -117.675781 110.296875 -118.21875 C 108.066406 -118.769531 105.160156 -119.097656 101.578125 -119.203125 L 101.578125 -125.734375 L 150.0625 -125.734375 L 150.0625 -119.203125 C 146.039062 -119.097656 142.800781 -118.742188 140.34375 -118.140625 C 137.894531 -117.546875 135.988281 -116.429688 134.625 -114.796875 C 133.269531 -113.160156 132.375 -110.816406 131.9375 -107.765625 C 131.507812 -104.722656 131.296875 -100.695312 131.296875 -95.6875 L 131.296875 1.640625 Z M 109.40625 1.640625 "/>
    </g>
    <g transform="translate(905.126061, 337.160287)">
      <path d="M 133.09375 -89.8125 L 126.0625 -89.8125 C 125.738281 -95.144531 124.945312 -99.578125 123.6875 -103.109375 C 122.4375 -106.648438 120.671875 -109.484375 118.390625 -111.609375 C 116.109375 -113.734375 113.332031 -115.203125 110.0625 -116.015625 C 106.789062 -116.835938 102.976562 -117.25 98.625 -117.25 C 94.382812 -117.25 90.984375 -117.164062 88.421875 -117 C 85.867188 -116.832031 83.910156 -116.554688 82.546875 -116.171875 C 81.179688 -115.796875 80.28125 -115.28125 79.84375 -114.625 C 79.414062 -113.976562 79.203125 -113.164062 79.203125 -112.1875 L 79.203125 -26.625 C 79.203125 -23.132812 79.445312 -20.132812 79.9375 -17.625 C 80.425781 -15.125 81.429688 -13.082031 82.953125 -11.5 C 84.472656 -9.925781 86.703125 -8.726562 89.640625 -7.90625 C 92.585938 -7.09375 96.457031 -6.632812 101.25 -6.53125 L 101.25 0 L 32.828125 0 L 32.828125 -6.53125 C 37.722656 -6.632812 41.640625 -7.09375 44.578125 -7.90625 C 47.515625 -8.726562 49.769531 -9.925781 51.34375 -11.5 C 52.925781 -13.082031 53.960938 -15.125 54.453125 -17.625 C 54.941406 -20.132812 55.1875 -23.132812 55.1875 -26.625 L 55.1875 -112.1875 C 55.1875 -113.164062 54.992188 -113.976562 54.609375 -114.625 C 54.234375 -115.28125 53.445312 -115.796875 52.25 -116.171875 C 51.050781 -116.554688 49.335938 -116.832031 47.109375 -117 C 44.878906 -117.164062 41.96875 -117.25 38.375 -117.25 C 34.457031 -117.25 30.703125 -117.054688 27.109375 -116.671875 C 23.515625 -116.296875 20.351562 -115.207031 17.625 -113.40625 C 14.90625 -111.613281 12.703125 -108.894531 11.015625 -105.25 C 9.328125 -101.601562 8.429688 -96.457031 8.328125 -89.8125 L 1.953125 -89.8125 L 3.59375 -125.734375 L 131.453125 -125.734375 Z M 133.09375 -89.8125 "/>
    </g>
  </g>

  <!-- CREST -->
  <g id="crest" transform="translate(389 600) scale(0.3615)">
    <!-- OUTER -->
    <g id="outer" fill="#0A0A0C">
      <path fill-rule="evenodd" d="
        M 200 86
        L 1800 86
        L 1800 1016
        C 1800 1298 1645 1558 1398 1696
        L 1010 1910
        C 1007 1912 1003 1914 1000 1914
        C 997 1914 993 1912 990 1910
        L 602 1696
        C 355 1558 200 1298 200 1016
        Z

        M 250 136
        L 1750 136
        L 1750 1008
        C 1750 1270 1609 1511 1378 1657
        L 1009 1861
        C 1006 1863 1003 1864 1000 1864
        C 997 1864 994 1863 991 1861
        L 622 1657
        C 391 1511 250 1270 250 1008
        Z" />
    </g>

    <!-- INNER intentionally omitted -->

    <!-- BEND -->
    <g id="bend" fill="#0A0A0C" clip-path="url(#crest-clip-field)">
      <path d="
        M 290 176
        L 585 176
        L 1668 1259
        C 1622 1372 1548 1477 1440 1567
        C 1422 1582 1407 1593 1394 1601
        L 290 497
        Z" />
    </g>
  </g>
</svg>