<svg xmlns="http://www.w3.org/2000/svg" viewBox="0 0 1500 1500" aria-labelledby="title desc" role="img">
  <title id="title">Chateau Follent Master Crest</title>
  <desc id="desc">Shield with compound border, accent ring, clipped bend, and internal elements.</desc>

  <defs>
    <path id="outer-shield" d="M150 81.43V762.45c0 212.16 115.73 407.93 302.03 510.94L750 1433.57l297.97-160.18C1234.27 1170.38 1350 974.61 1350 762.45V81.43c0-9.48-7.68-17.14-17.14-17.14H167.14c-9.46 0-17.14 7.66-17.14 17.14Z"/>
    <path id="inner-shield" d="M184.29 98.57V762.45c0 199.68 108.95 383.97 284.33 480.94L750 1398.98l281.38-155.59c175.38-96.97 284.33-281.26 284.33-480.94V98.57H184.29Z"/>
    <path id="field-shield" d="M213.08 131.73V761.82c0 189.52 103.41 364.43 269.86 456.45L750 1365.94l267.06-147.67c166.45-92.02 269.86-266.93 269.86-456.45V131.73H213.08Z"/>

    <clipPath id="clip-field">
      <use href="#field-shield"/>
    </clipPath>
  </defs>

  <g id="outer-shield-outline">
    <path fill="#0a0a0c" fill-rule="evenodd"
      d="M150 81.43V762.45c0 212.16 115.73 407.93 302.03 510.94L750 1433.57l297.97-160.18C1234.27 1170.38 1350 974.61 1350 762.45V81.43c0-9.48-7.68-17.14-17.14-17.14H167.14c-9.46 0-17.14 7.66-17.14 17.14Z
         M184.29 98.57H1315.71V762.45c0 199.68-108.95 383.97-284.33 480.94L750 1398.98l-281.38-155.59C293.24 1146.42 184.29 962.13 184.29 762.45V98.57Z"/>
  </g>

  <g id="inner-shield-accent">
    <path fill="#0a0a0c" fill-rule="evenodd"
      d="M184.29 98.57V762.45c0 199.68 108.95 383.97 284.33 480.94L750 1398.98l281.38-155.59c175.38-96.97 284.33-281.26 284.33-480.94V98.57H184.29Z
         M213.08 131.73H1286.92V761.82c0 189.52-103.41 364.43-269.86 456.45L750 1365.94l-267.06-147.67C316.49 1126.25 213.08 951.34 213.08 761.82V131.73Z"/>
  </g>

  <g id="bend" clip-path="url(#clip-field)">
    <path fill="#0a0a0c" d="M451.38 129.61 1302.59 980.82 1063.97 1219.44 212.75 368.23Z"/>
  </g>

  <g id="internal-elements" clip-path="url(#clip-field)">
    <path fill="#0a0a0c" d="M750 287 782 352 854 362 802 412 814 483 750 449 686 483 698 412 646 362 718 352Z"/>
    <circle cx="750" cy="964" r="84" fill="#0a0a0c"/>
  </g>
</svg>
